<svg
      data-name="Layer 1"
      xmlns="http://www.w3.org/2000/svg"
      viewBox="0 0 118.24 118.24"
      width="40"
      height="40"
    >
      <path fill="white" d="M59.89 26.08c-1.68.31-3.34.69-4.99 1.14.77.73 1.81 1.4 2.92 1.19 1.11-.26 1.69-1.35 2.07-2.33m-11.5 5.81c1.11.38 2.49.59 3.47-.2 1.11-.92 1.24-2.49 1.13-3.83-1.9.83-3.48 2.31-4.61 4.03m-6.94 56.1c.36 1.02 1.56 1.72 2.62 1.38 1-.27 1.74-1.29 1.64-2.33.06-1.45-1.59-2.69-2.95-2.1-1.19.42-1.79 1.9-1.31 3.05m9.36-14.04c0-1.97.1-3.95-.24-5.9-.19-1.17-1.09-2-1.7-2.96a22.19 22.19 0 0 1-3.81-11.52c-.67 2.9-.56 6.1.82 8.79a9.78 9.78 0 0 0 2.85 3.22c-1.56.05-3.28-.31-4.35-1.55-1.81-2.11-3.45-4.37-5.38-6.38a12.2 12.2 0 0 0-1.8-1.57c-.38-.25-.84-.51-1.32-.37-1.09.29-2.14.68-3.19 1.07 3.4 8.06 6.82 16.12 10.23 24.17.11.32.42.48.69.64 1.92 1.08 3.81 2.21 5.73 3.29-.76 2.18-1.57 4.34-2.36 6.52.87-.22 1.74-.41 2.62-.6.52-5.61 1.03-11.23 1.2-16.87m24.04 3.88c-.64-2.29-1.35-4.63-2.73-6.59a5 5 0 0 0-3.53-2.19c-1.81-.2-3.6.27-5.38.48a21 21 0 0 1-6.76-.03c-.55 1.44-.85 2.97-1.21 4.46a584.11 584.11 0 0 0-3.41 16.54c3.88-.44 7.79-.36 11.67-.06 2.05-1.78 4.06-3.59 6-5.48 1.64-1.61 3.31-3.23 4.67-5.1.39-.6.93-1.28.67-2.04m10.52 2.81c.54-1.08-.18-2.19-.69-3.13a40.68 40.68 0 0 0-5.01-6.6 24.23 24.23 0 0 1-7.16-12.35c.02 2.25.49 4.5 1.32 6.6a9.23 9.23 0 0 0 4.58 5.14 5.72 5.72 0 0 0-.76 3.12 14.97 14.97 0 0 0 2.26 4.18c-1.62 2.19-3.62 4.07-5.53 6a81.6 81.6 0 0 1-6.66 5.94 4.4 4.4 0 0 1-2.41 1.01v.27l.11-.21c2.57.29 5.13.63 7.68 1.08 1.35.22 2.67.53 4.02.73a144.2 144.2 0 0 0 4.22-5.37c1.48-2.04 3.04-4.08 4.04-6.41m5.06-2.16c-.3.72-.78 1.36-1.2 2.02-1.91 2.78-3.96 5.45-5.96 8.15-.83 1.14-1.7 2.25-2.42 3.47-.34.55-1.03.65-1.6.82 1.72.39 3.41.85 5.11 1.32 1.93.52 3.9.85 5.84 1.36-2.29.18-4.58-.19-6.84-.51-8.06-1.1-16.22-1.77-24.35-1.23-4.43.31-8.87 1-13.09 2.42-3 1.03-5.96 2.38-8.4 4.46a9.48 9.48 0 0 1 3.08-6.07c1-.94 2.21-1.61 3.42-2.23-2.06-.74-4.11-1.5-6.16-2.26.83-2.74 1.69-5.48 2.55-8.21l-5.93-14.12c-1.86.86-3.68 1.8-5.54 2.66-.62-1.31-1.32-2.58-1.91-3.9l1.92-.88c0 .53 0 1.13.39 1.55.66.84 2.12.74 2.65-.19.49-.72.25-1.71-.39-2.26.69-.08 1.4-.45 1.61-1.17.45-1.09-.59-2.41-1.75-2.22-.56.05-.99.44-1.27.9-.1-.72-.5-1.46-1.25-1.65-1.03-.36-2.18.57-2.11 1.64-.03.74.57 1.25 1.11 1.65-.61.34-1.22.69-1.84 1.01-.57-1.29-1.16-2.56-1.74-3.84-.65-1.16.08-2.61 1.04-3.35a31.95 31.95 0 0 1 6.21-3.52 18.07 18.07 0 0 1 4.54-1.39c.88-.1 1.87-.14 2.62.41l4.36 3.03c-.89-2.09-.73-4.47-.07-6.6.53-2.02 1.1-4.1.88-6.2.03-.32-.32-.36-.55-.43-2.48-.62-4.96-1.27-7.43-1.92-.7-.15-1.2-.69-1.64-1.21-.37-.41-.28-1.01-.22-1.51.05-.32.41-.4.66-.51 1.91-.7 3.81-1.43 5.74-2.07 1.48-.49 2.85-1.24 4.27-1.87l-.16-1.06c-.69.37-1.43.73-2.24.74a3.7 3.7 0 0 1-3.59-2.83 8.63 8.63 0 0 1 .51-5.14c.42.02.91.35.74.83-.46 1.59-.53 3.47.5 4.86.5.69 1.4.83 2.19.7-.58-.62-1.18-1.3-1.29-2.18-.29-2.03.59-4 1.62-5.7.13-.34.68-.38.81-.01.26.37-.05.77-.22 1.1-.76 1.34-1.2 3.01-.71 4.52.22.73.92 1.16 1.65 1.24.13-1.71.68-3.37 1.46-4.88a5.33 5.33 0 0 1-.59-2.17 4.66 4.66 0 0 1 1.28-3.19c.24-.23.48-.59.86-.44.3.25.39.78.06 1.04a3.67 3.67 0 0 0-.85 3.46c1.04-1.49 2.48-2.62 3.77-3.88a5.65 5.65 0 0 1-1.1-2.69 4.64 4.64 0 0 1 1.79-3.97c.42-.04.64.41.61.78-.32.51-.8.92-.98 1.52a3.83 3.83 0 0 0 .52 3.51c.71-.82 1.46-1.63 1.95-2.61.55-1.06.74-2.25.97-3.42a.7.7 0 0 1 .85-.61c.15.81.09 1.64-.08 2.45a8.73 8.73 0 0 1-1.43 3.61c-1.05 1.39-2.39 2.53-3.56 3.82-.82.92-1.74 1.77-2.37 2.83a11.3 11.3 0 0 0-1.45 4.57c.44-.2.87-.43 1.15-.83a14.9 14.9 0 0 1 5.03-3.91c-.28-.54-.75-1.32-.05-1.76.7-.04.79.87 1.1 1.33 2.2-.65 4.49-.87 6.7-1.47-.03-.61-.1-1.22-.19-1.83.19-.2.39-.39.59-.57l.45.24c.11.63.18 1.27.22 1.92.51-.14 1.01-.31 1.51-.49a6.43 6.43 0 0 1 .25-3.88 7.59 7.59 0 0 1 3.64-3.73c.24-.15.69-.18.68.2.04.63-.58.98-1.03 1.29a5.5 5.5 0 0 0-2.21 5.29 14.22 14.22 0 0 0 2.71-2.93c.44-.58 1.03-1.32 1.86-1.07-.11.92-.68 1.68-1.17 2.43a17.15 17.15 0 0 1-2.62 3.08 8.03 8.03 0 0 1-3.65 1.67c-.24 1.54-.84 3.26-2.36 3.95-1.47.77-3.28.35-4.52-.67a4.72 4.72 0 0 1-2.2 4.34c-1.41.91-3.23.68-4.69 0l-.19.38c.4.23.78.48 1.16.75 1.26-.14 2.61-.22 3.8.29.46.18.62.78.33 1.18-.53.8-1.53 1.04-2.35 1.44a29.27 29.27 0 0 0 2.89 4.77c.9 1.17 1.85 2.3 2.7 3.52.89 1.23 1.6 2.61 2.71 3.66a9.08 9.08 0 0 0 4.34 2.31c2.29.57 4.68.58 7.03.48 2.95.05 5.91.19 8.84-.18a11.5 11.5 0 0 1 3.61-.05 8.76 8.76 0 0 1 6.13 4.66c1.11 2.19 1.2 4.72.9 7.12A12.92 12.92 0 0 1 88 68.4c-.25-2.24-.36-4.49-.6-6.72-.17 2.09-.31 4.18-.41 6.27-.03.78-.01 1.58.27 2.32.9 2.51 2.07 4.91 3.04 7.39.08.28.25.58.11.87m27.8-19.36C118.24 26.47 91.77 0 59.12 0a59.12 59.12 0 1 0 59.12 59.12" />
    </svg>